<svg xmlns="http://www.w3.org/2000/svg" viewBox="0 0 36.44 36.44"><defs><style>.cls-1{fill:#353734;}.cls-2,.cls-3,.cls-4{fill:none;stroke:#fff;}.cls-2,.cls-4{stroke-linecap:round;}.cls-2,.cls-3{stroke-linejoin:round;}.cls-2{stroke-width:0.81px;}.cls-3{stroke-width:0.93px;}.cls-4{stroke-miterlimit:3.71;stroke-width:0.71px;}</style></defs><g id="Capa_2" data-name="Capa 2"><g id="svg5278"><g id="layer1"><g id="g4995"><g id="g4144"><g id="g3849-5-7-2"><path id="path2868-0-4-2-0" class="cls-1" d="M11.94,35.32A18.22,18.22,0,1,1,35.32,24.5,18.22,18.22,0,0,1,11.94,35.32Z"/></g><g id="g4058"><path id="path4008" class="cls-2" d="M12.77,15.05a6.15,6.15,0,0,0,.67,8.18,9.49,9.49,0,0,0-4.5,6.49H27.5A9.49,9.49,0,0,0,23,23.23a6.09,6.09,0,0,0,.7-8Z"/><path id="path4016" class="cls-3" d="M23.83,15.13,12.39,15,9.81,8.78l6,1.37,2.55-3.37,2.27,3.68L27.2,9.25Z"/><path id="path4018" class="cls-4" d="M21.49,17.78l-1.83,1.84h0"/><path id="path4018-5" class="cls-4" d="M14.93,17.7l1.82,1.84h0"/></g></g></g></g></g></g></svg>