<svg xmlns="http://www.w3.org/2000/svg" viewBox="0 0 36.44 36.44"><defs><style>.cls-1{fill:#353734;}.cls-2,.cls-3{fill:none;stroke:#fff;}.cls-2{stroke-linecap:round;stroke-linejoin:round;}</style></defs><g id="Capa_2" data-name="Capa 2"><g id="svg5278"><g id="layer1"><g id="g4995"><g id="g3997"><g id="g3849-5-7"><path id="path2868-0-4-2" class="cls-1" d="M11.94,35.32A18.22,18.22,0,1,1,35.32,24.5,18.22,18.22,0,0,1,11.94,35.32Z"/></g><g id="g3932"><path id="path3926" class="cls-2" d="M18.57,23a3.09,3.09,0,1,1,3.09-3.09A3.09,3.09,0,0,1,18.57,23Z"/><path id="path3928" class="cls-2" d="M18.57,25a5.11,5.11,0,1,1,5.11-5.11A5.11,5.11,0,0,1,18.57,25Z"/><path id="path3930" class="cls-3" d="M23.55,20.44c1.46.1,5.24-.3,8.27-.57l.07-3.35c-7.31-2.82-14.2-5.76-18.18-4.92s-5.54,5.19-2.47,8l-2.78,2H4.74l-.19,2.27,4.36-.06,4.48-2.9"/></g></g></g></g></g></g></svg>