<svg xmlns="http://www.w3.org/2000/svg" viewBox="0 0 36.44 36.44"><defs><style>.cls-1{fill:#353734;}.cls-2{fill:none;stroke:#a00;stroke-linecap:round;stroke-linejoin:round;stroke-width:0.9px;}</style></defs><g id="Capa_2" data-name="Capa 2"><g id="svg5278"><g id="layer1"><g id="g4995"><g id="g4698"><g id="g3849-5-0"><path id="path2868-0-4-7" class="cls-1" d="M11.94,35.32A18.22,18.22,0,1,1,35.32,24.5,18.22,18.22,0,0,1,11.94,35.32Z"/></g><path id="path3905-5" class="cls-2" d="M27.74,29.51a9.83,9.83,0,0,0-5-6.44,7.12,7.12,0,0,0-2.26-12.24,2.62,2.62,0,1,0-4.91-1.27A2.54,2.54,0,0,0,16,10.83a7.12,7.12,0,0,0-2.26,12.24,9.83,9.83,0,0,0-5,6.44Z"/></g></g></g></g></g></svg>