<svg xmlns="http://www.w3.org/2000/svg" viewBox="0 0 36.44 36.44"><defs><style>.cls-1{fill:#353734;}.cls-2,.cls-3{fill:none;stroke:#fff;}.cls-3{stroke-linejoin:round;}</style></defs><g id="Capa_2" data-name="Capa 2"><g id="svg5278"><g id="layer1"><g id="g4995"><g id="g4333"><g id="g3849-5-7-2-2-9"><path id="path2868-0-4-2-0-3-3" class="cls-1" d="M11.94,35.32A18.22,18.22,0,1,1,35.32,24.5,18.22,18.22,0,0,1,11.94,35.32Z"/></g><g id="g4263"><g id="g4256"><path id="path4246" class="cls-2" d="M16.39,14.12a7.6,7.6,0,0,0-6.9-1.59c-4.47.91-3,6-1.64,9.22s4.21,8.86,4.21,8.86l13.65,0a75.25,75.25,0,0,0,3.56-8.31c1-3.14,1.49-9.39-2.33-10a10.69,10.69,0,0,0-7,1.7"/><path id="path4248" class="cls-2" d="M27.24,27.58l-16.36-.1"/><path id="path4250" class="cls-2" d="M19.56,27.52l.22-14.85"/><path id="path4252" class="cls-2" d="M16.47,27.6l.06-15"/><path id="path4254" class="cls-3" d="M19.59,7.86,22,7.46l-.1,3.41-2.71-.36,1.26,2-4.62-.11L17,10.14l-3,.47.27-3,2.62.49-.64-2.28,4.09,0-.78,2Z"/></g></g></g></g></g></g></g></svg>